<svg id="visual" viewBox="0 0 960 540" width="960" height="540" xmlns="http://www.w3.org/2000/svg" xmlns:xlink="http://www.w3.org/1999/xlink" version="1.1"><path d="M0 93L14.5 82.2C29 71.3 58 49.7 87.2 45.2C116.3 40.7 145.7 53.3 174.8 62.3C204 71.3 233 76.7 262 76.7C291 76.7 320 71.3 349 75C378 78.7 407 91.3 436.2 92.2C465.3 93 494.7 82 523.8 73.8C553 65.7 582 60.3 611 59.5C640 58.7 669 62.3 698 59.7C727 57 756 48 785.2 41.7C814.3 35.3 843.7 31.7 872.8 38C902 44.3 931 60.7 945.5 68.8L960 77L960 0L945.5 0C931 0 902 0 872.8 0C843.7 0 814.3 0 785.2 0C756 0 727 0 698 0C669 0 640 0 611 0C582 0 553 0 523.8 0C494.7 0 465.3 0 436.2 0C407 0 378 0 349 0C320 0 291 0 262 0C233 0 204 0 174.8 0C145.7 0 116.3 0 87.2 0C58 0 29 0 14.5 0L0 0Z" fill="#36b796"></path><path d="M0 141L14.5 131.2C29 121.3 58 101.7 87.2 99C116.3 96.3 145.7 110.7 174.8 114.3C204 118 233 111 262 107.5C291 104 320 104 349 109.3C378 114.7 407 125.3 436.2 128.8C465.3 132.3 494.7 128.7 523.8 123.3C553 118 582 111 611 107.5C640 104 669 104 698 103C727 102 756 100 785.2 97.2C814.3 94.3 843.7 90.7 872.8 97C902 103.3 931 119.7 945.5 127.8L960 136L960 75L945.5 66.8C931 58.7 902 42.3 872.8 36C843.7 29.7 814.3 33.3 785.2 39.7C756 46 727 55 698 57.7C669 60.3 640 56.7 611 57.5C582 58.3 553 63.7 523.8 71.8C494.7 80 465.3 91 436.2 90.2C407 89.3 378 76.7 349 73C320 69.3 291 74.7 262 74.7C233 74.7 204 69.3 174.8 60.3C145.7 51.3 116.3 38.7 87.2 43.2C58 47.7 29 69.3 14.5 80.2L0 91Z" fill="#29ab8a"></path><path d="M0 174L14.5 167.7C29 161.3 58 148.7 87.2 146C116.3 143.3 145.7 150.7 174.8 155.2C204 159.7 233 161.3 262 156.8C291 152.3 320 141.7 349 143.5C378 145.3 407 159.7 436.2 169.5C465.3 179.3 494.7 184.7 523.8 182C553 179.3 582 168.7 611 161.5C640 154.3 669 150.7 698 150.7C727 150.7 756 154.3 785.2 155.2C814.3 156 843.7 154 872.8 161.2C902 168.3 931 184.7 945.5 192.8L960 201L960 134L945.5 125.8C931 117.7 902 101.3 872.8 95C843.7 88.7 814.3 92.3 785.2 95.2C756 98 727 100 698 101C669 102 640 102 611 105.5C582 109 553 116 523.8 121.3C494.7 126.7 465.3 130.3 436.2 126.8C407 123.3 378 112.7 349 107.3C320 102 291 102 262 105.5C233 109 204 116 174.8 112.3C145.7 108.7 116.3 94.3 87.2 97C58 99.7 29 119.3 14.5 129.2L0 139Z" fill="#19a07e"></path><path d="M0 325L14.5 310.7C29 296.3 58 267.7 87.2 265.8C116.3 264 145.7 289 174.8 293.5C204 298 233 282 262 271.2C291 260.3 320 254.7 349 260.8C378 267 407 285 436.2 292.3C465.3 299.7 494.7 296.3 523.8 299.2C553 302 582 311 611 318.2C640 325.3 669 330.7 698 327C727 323.3 756 310.7 785.2 298C814.3 285.3 843.7 272.7 872.8 277.2C902 281.7 931 303.3 945.5 314.2L960 325L960 199L945.5 190.8C931 182.7 902 166.3 872.8 159.2C843.7 152 814.3 154 785.2 153.2C756 152.3 727 148.7 698 148.7C669 148.7 640 152.3 611 159.5C582 166.7 553 177.3 523.8 180C494.7 182.7 465.3 177.3 436.2 167.5C407 157.7 378 143.3 349 141.5C320 139.7 291 150.3 262 154.8C233 159.3 204 157.7 174.8 153.2C145.7 148.7 116.3 141.3 87.2 144C58 146.7 29 159.3 14.5 165.7L0 172Z" fill="#009473"></path><path d="M0 374L14.5 359.5C29 345 58 316 87.2 314.2C116.3 312.3 145.7 337.7 174.8 342.2C204 346.7 233 330.3 262 319.5C291 308.7 320 303.3 349 307.8C378 312.3 407 326.7 436.2 332C465.3 337.3 494.7 333.7 523.8 336.3C553 339 582 348 611 352.5C640 357 669 357 698 350.8C727 344.7 756 332.3 785.2 322.5C814.3 312.7 843.7 305.3 872.8 309.8C902 314.3 931 330.7 945.5 338.8L960 347L960 323L945.5 312.2C931 301.3 902 279.7 872.8 275.2C843.7 270.7 814.3 283.3 785.2 296C756 308.7 727 321.3 698 325C669 328.7 640 323.3 611 316.2C582 309 553 300 523.8 297.2C494.7 294.3 465.3 297.7 436.2 290.3C407 283 378 265 349 258.8C320 252.7 291 258.3 262 269.2C233 280 204 296 174.8 291.5C145.7 287 116.3 262 87.2 263.8C58 265.7 29 294.3 14.5 308.7L0 323Z" fill="#008669"></path><path d="M0 433L14.5 431.2C29 429.3 58 425.7 87.2 427.5C116.3 429.3 145.7 436.7 174.8 444.8C204 453 233 462 262 471C291 480 320 489 349 481.8C378 474.7 407 451.3 436.2 444.2C465.3 437 494.7 446 523.8 446.8C553 447.7 582 440.3 611 446.5C640 452.7 669 472.3 698 469.7C727 467 756 442 785.2 439.3C814.3 436.7 843.7 456.3 872.8 463.5C902 470.7 931 465.3 945.5 462.7L960 460L960 345L945.5 336.8C931 328.7 902 312.3 872.8 307.8C843.7 303.3 814.3 310.7 785.2 320.5C756 330.3 727 342.7 698 348.8C669 355 640 355 611 350.5C582 346 553 337 523.8 334.3C494.7 331.7 465.3 335.3 436.2 330C407 324.7 378 310.3 349 305.8C320 301.3 291 306.7 262 317.5C233 328.3 204 344.7 174.8 340.2C145.7 335.7 116.3 310.3 87.2 312.2C58 314 29 343 14.5 357.5L0 372Z" fill="#00795f"></path><path d="M0 541L14.5 541C29 541 58 541 87.2 541C116.3 541 145.7 541 174.8 541C204 541 233 541 262 541C291 541 320 541 349 541C378 541 407 541 436.2 541C465.3 541 494.7 541 523.8 541C553 541 582 541 611 541C640 541 669 541 698 541C727 541 756 541 785.2 541C814.3 541 843.7 541 872.8 541C902 541 931 541 945.5 541L960 541L960 458L945.5 460.7C931 463.3 902 468.7 872.8 461.5C843.7 454.3 814.3 434.7 785.2 437.3C756 440 727 465 698 467.7C669 470.3 640 450.7 611 444.5C582 438.3 553 445.7 523.8 444.8C494.7 444 465.3 435 436.2 442.2C407 449.3 378 472.7 349 479.8C320 487 291 478 262 469C233 460 204 451 174.8 442.8C145.7 434.7 116.3 427.3 87.2 425.5C58 423.7 29 427.3 14.5 429.2L0 431Z" fill="#006c55"></path></svg>